<?xml version="1.0" encoding="UTF-8"?>
<svg xmlns="http://www.w3.org/2000/svg" width="80" height="80" viewBox="0 0 80 80" fill="none">
  <g clip-path="url(#clip0_1369_7697)">
    <path fill-rule="evenodd" clip-rule="evenodd" d="M45.9375 46.9598C45.9375 47.8705 46.6758 48.6088 47.5865 48.6088C48.4971 48.6088 49.2354 47.8705 49.2354 46.9598C49.2354 46.0492 48.4971 45.3109 47.5865 45.3109C46.6758 45.3109 45.9375 46.0492 45.9375 46.9598Z" fill="#7880E5"></path>
    <path fill-rule="evenodd" clip-rule="evenodd" d="M45.9375 39.3876C45.9375 40.2983 46.6758 41.0365 47.5865 41.0365C48.4971 41.0365 49.2354 40.2983 49.2354 39.3876C49.2354 38.4769 48.4971 37.7386 47.5865 37.7386C46.6758 37.7386 45.9375 38.4769 45.9375 39.3876Z" fill="#7880E5"></path>
    <path fill-rule="evenodd" clip-rule="evenodd" d="M53.5098 46.9598C53.5098 47.8705 54.248 48.6088 55.1587 48.6088C56.0694 48.6088 56.8077 47.8705 56.8077 46.9598C56.8077 46.0492 56.0694 45.3109 55.1587 45.3109C54.248 45.3109 53.5098 46.0492 53.5098 46.9598Z" fill="#7880E5"></path>
    <path fill-rule="evenodd" clip-rule="evenodd" d="M38.3633 54.5321C38.3633 55.4428 39.1015 56.1811 40.0122 56.1811C40.9229 56.1811 41.6612 55.4428 41.6612 54.5321C41.6612 53.6214 40.9229 52.8832 40.0122 52.8832C39.1015 52.8832 38.3633 53.6214 38.3633 54.5321Z" fill="#7880E5"></path>
    <path fill-rule="evenodd" clip-rule="evenodd" d="M23.2188 39.3876C23.2188 40.2983 23.957 41.0365 24.8677 41.0365C25.7784 41.0365 26.5167 40.2983 26.5167 39.3876C26.5167 38.4769 25.7784 37.7386 24.8677 37.7386C23.957 37.7386 23.2188 38.4769 23.2188 39.3876Z" fill="#7880E5"></path>
    <path fill-rule="evenodd" clip-rule="evenodd" d="M30.791 54.5321C30.791 55.4428 31.5293 56.1811 32.44 56.1811C33.3507 56.1811 34.0889 55.4428 34.0889 54.5321C34.0889 53.6214 33.3507 52.8832 32.44 52.8832C31.5293 52.8832 30.791 53.6214 30.791 54.5321Z" fill="#7880E5"></path>
    <path fill-rule="evenodd" clip-rule="evenodd" d="M23.2188 46.9598C23.2188 47.8705 23.957 48.6088 24.8677 48.6088C25.7784 48.6088 26.5167 47.8705 26.5167 46.9598C26.5167 46.0492 25.7784 45.3109 24.8677 45.3109C23.957 45.3109 23.2188 46.0492 23.2188 46.9598Z" fill="#7880E5"></path>
    <path fill-rule="evenodd" clip-rule="evenodd" d="M23.2188 54.5321C23.2188 55.4428 23.957 56.1811 24.8677 56.1811C25.7784 56.1811 26.5167 55.4428 26.5167 54.5321C26.5167 53.6214 25.7784 52.8832 24.8677 52.8832C23.957 52.8832 23.2188 53.6214 23.2188 54.5321Z" fill="#7880E5"></path>
    <path fill-rule="evenodd" clip-rule="evenodd" d="M60.7023 29.9769H19.3233V25.1899C19.3233 24.0112 20.2822 23.0523 21.4609 23.0523H23.9761V25.1895C23.9761 26.1002 24.7143 26.8384 25.625 26.8384C26.5357 26.8384 27.274 26.1002 27.274 25.1895V23.0523H52.7509V25.1895C52.7509 26.1002 53.4892 26.8384 54.3998 26.8384C55.3105 26.8384 56.0488 26.1002 56.0488 25.1895V23.0523H58.5655C59.7434 23.0523 60.7023 24.0112 60.7023 25.1899V29.9769ZM60.7023 58.5076C60.7023 59.6863 59.7434 60.6452 58.5655 60.6452H21.4609C20.2822 60.6452 19.3233 59.6863 19.3233 58.5076V33.2748H60.7023V58.5076ZM58.5655 19.7544H56.0488V17.6172C56.0488 16.7065 55.3105 15.9683 54.3998 15.9683C53.4892 15.9683 52.7509 16.7065 52.7509 17.6172V19.7544H27.274V17.6172C27.274 16.7065 26.5357 15.9683 25.625 15.9683C24.7143 15.9683 23.9761 16.7065 23.9761 17.6172V19.7544H21.4609C18.4635 19.7544 16.0254 22.1925 16.0254 25.1899V58.5076C16.0254 61.505 18.4635 63.9431 21.4609 63.9431H58.5655C61.5621 63.9431 64.0002 61.505 64.0002 58.5076V25.1899C64.0002 22.1925 61.5621 19.7544 58.5655 19.7544Z" fill="#7880E5"></path>
    <path fill-rule="evenodd" clip-rule="evenodd" d="M53.5098 39.3876C53.5098 40.2983 54.248 41.0365 55.1587 41.0365C56.0694 41.0365 56.8077 40.2983 56.8077 39.3876C56.8077 38.4769 56.0694 37.7386 55.1587 37.7386C54.248 37.7386 53.5098 38.4769 53.5098 39.3876Z" fill="#7880E5"></path>
    <path fill-rule="evenodd" clip-rule="evenodd" d="M45.9375 54.5321C45.9375 55.4428 46.6758 56.1811 47.5865 56.1811C48.4971 56.1811 49.2354 55.4428 49.2354 54.5321C49.2354 53.6214 48.4971 52.8832 47.5865 52.8832C46.6758 52.8832 45.9375 53.6214 45.9375 54.5321Z" fill="#7880E5"></path>
    <path fill-rule="evenodd" clip-rule="evenodd" d="M30.791 46.9598C30.791 47.8705 31.5293 48.6088 32.44 48.6088C33.3507 48.6088 34.0889 47.8705 34.0889 46.9598C34.0889 46.0492 33.3507 45.3109 32.44 45.3109C31.5293 45.3109 30.791 46.0492 30.791 46.9598Z" fill="#7880E5"></path>
    <path fill-rule="evenodd" clip-rule="evenodd" d="M30.791 39.3876C30.791 40.2983 31.5293 41.0365 32.44 41.0365C33.3507 41.0365 34.0889 40.2983 34.0889 39.3876C34.0889 38.4769 33.3507 37.7386 32.44 37.7386C31.5293 37.7386 30.791 38.4769 30.791 39.3876Z" fill="#7880E5"></path>
    <path fill-rule="evenodd" clip-rule="evenodd" d="M38.3633 39.3876C38.3633 40.2983 39.1015 41.0365 40.0122 41.0365C40.9229 41.0365 41.6612 40.2983 41.6612 39.3876C41.6612 38.4769 40.9229 37.7386 40.0122 37.7386C39.1015 37.7386 38.3633 38.4769 38.3633 39.3876Z" fill="#7880E5"></path>
    <path fill-rule="evenodd" clip-rule="evenodd" d="M38.3633 46.9598C38.3633 47.8705 39.1015 48.6088 40.0122 48.6088C40.9229 48.6088 41.6612 47.8705 41.6612 46.9598C41.6612 46.0492 40.9229 45.3109 40.0122 45.3109C39.1015 45.3109 38.3633 46.0492 38.3633 46.9598Z" fill="#7880E5"></path>
  </g>
  <defs>
    <clipPath id="clip0_1369_7697">
      <rect width="80" height="80" fill="white"></rect>
    </clipPath>
  </defs>
</svg>
